<?xml version="1.0" encoding="UTF-8"?>
<svg xmlns="http://www.w3.org/2000/svg" xmlns:xlink="http://www.w3.org/1999/xlink" version="1.1" id="Layer_1" x="0px" y="0px" viewBox="0 0 648 648" style="enable-background:new 0 0 648 648;" xml:space="preserve">
<style type="text/css">
	.st0{fill:#FFFFFF;}
	.st1{fill:#061922;stroke:#000000;stroke-miterlimit:10;}
	.st2{fill:#C8102E;stroke:#CE102C;stroke-miterlimit:10;}
	.st3{fill:#1D428A;stroke:#194289;stroke-miterlimit:10;}
</style>
<g>
	<g>
		<circle class="st0" cx="323.4" cy="324.1" r="288"></circle>
		<path class="st1" d="M323.4,59.9c-145.7,0-264.2,118.5-264.2,264.2s118.5,264.2,264.2,264.2c145.7,0,264.2-118.5,264.2-264.2    S469.1,59.9,323.4,59.9z M514.4,177.3c30.2,39.2,47.4,85.9,49.7,135.2h-99.6C466.9,263.2,484.1,216.5,514.4,177.3z M132.4,177.3    c30.3,39.3,47.5,85.9,49.8,135.2H82.7C85,263.2,102.2,216.5,132.4,177.3z M132.4,470.9C102.2,431.7,85,385,82.7,335.7h99.6    C179.9,384.9,162.7,431.6,132.4,470.9z M335,564.8v-69h-23.2v69c-62.7-3-120.9-29.9-164.1-75.9c35.3-44.1,55.2-97,57.6-153.3    v-23.2c-2.4-56.3-22.3-109.2-57.6-153.3c43.2-46,101.4-72.9,164.1-75.9v68.4H335V83.3c62.7,3,120.9,29.9,164.1,75.9    c-35.3,44.1-55.2,97-57.6,153.3v23.2c2.4,56.3,22.3,109.2,57.6,153.3C455.9,534.9,397.7,561.8,335,564.8z M514.4,470.9    c-30.3-39.3-47.5-85.9-49.8-135.2h99.6C561.8,385,544.6,431.7,514.4,470.9z"></path>
		<g>
			<polygon class="st2" points="264.5,213.4 264.5,433.8 382.3,433.8 382.3,403.5 296.1,403.5 296.1,213.4    "></polygon>
			<path class="st3" d="M422.3,287.3v-90.8c0-13.6-5.5-19.2-18.9-19.2H243.1c-13.3,0-18.7,5.6-18.7,19.2v255.3     c0,13.6,5.4,19.2,18.7,19.2h160.3c13.4,0,18.9-5.6,18.9-19.2v-90.9h-31.8V443H256V205.1h134.6v82.1H422.3z"></path>
			<path class="st2" d="M382.3,395l0-181.6h-76.5L305,395h30.6l0.5-56.6h15.6l-0.2,56.6H382.3z M351.5,308.2h-15.4v-64.5h15.4V308.2     z"></path>
		</g>
	</g>
</g>
</svg>
